<svg width="66" height="66" viewBox="0 0 66 66" fill="none" xmlns="http://www.w3.org/2000/svg">
<rect x="1.5" y="1.5" width="63" height="63" rx="31.5" stroke="#FF4D4D" stroke-width="3"/>
<path d="M35.8125 18.9062L35.2324 36.6777H31.0137L30.416 18.9062H35.8125ZM30.2754 42.1797C30.2754 41.4297 30.5332 40.8086 31.0488 40.3164C31.5762 39.8125 32.2676 39.5605 33.123 39.5605C33.9902 39.5605 34.6816 39.8125 35.1973 40.3164C35.7129 40.8086 35.9707 41.4297 35.9707 42.1797C35.9707 42.9062 35.7129 43.5215 35.1973 44.0254C34.6816 44.5293 33.9902 44.7812 33.123 44.7812C32.2676 44.7812 31.5762 44.5293 31.0488 44.0254C30.5332 43.5215 30.2754 42.9062 30.2754 42.1797Z" fill="#FF4D4D"/>
</svg>
